<?xml version="1.0" encoding="utf-8"?>
<!-- Generator: Adobe Illustrator 21.0.0, SVG Export Plug-In . SVG Version: 6.00 Build 0)  -->
<svg version="1.1" id="Capa_1" xmlns="http://www.w3.org/2000/svg" xmlns:xlink="http://www.w3.org/1999/xlink" x="0px" y="0px"
	 viewBox="0 0 512 512" style="enable-background:new 0 0 512 512;" xml:space="preserve">
<style type="text/css">
	.st0{fill:#FFFFFF;}
</style>
<g>
	<path class="st0" d="M256,0C114.6,0,0,114.6,0,256s114.6,256,256,256s256-114.6,256-256S397.4,0,256,0z M100.3,388.6
		c-18.4,0-33.2-14.9-33.2-33.2s14.9-33.2,33.2-33.2c18.4,0,33.2,14.9,33.2,33.2S118.7,388.6,100.3,388.6z M240.5,232.1h-26.2v153.3
		h-46.1V232.1h-23.8v-42.1h23.8v-66.5h46.1v66.5h26.2V232.1z M365.1,386.8l-38.6,0.1l-78.2-196.6h52.6l46.3,123.4l44.7-123.6h53
		L365.1,386.8z"/>
</g>
</svg>
